# Rhino

mtllib pillar.mtl
usemtl diffuse_200_0_0_255
v 0 0 0
v 0 5 0
v 0 0 1
v 0 5 1
v 0 0 1
v 0 5 1
v 1 0 1
v 1 5 1
v 1 0 1
v 1 5 1
v 1 0 0
v 1 5 0
v 1 0 0
v 1 5 0
v 0 0 0
v 0 5 0
v 0 0 0
v 0 0 1
v 1 0 1
v 1 0 0
v 0 5 0
v 0 5 1
v 1 5 1
v 1 5 0
vt 0 0
vt 0 1
vt 0.20833316445350647 0
vt 0.20833316445350647 1
vt 0.20833316445350647 0
vt 0.20833316445350647 1
vt 0.41666632890701294 0
vt 0.41666632890701294 1
vt 0.41666632890701294 0
vt 0.41666632890701294 1
vt 0.62499946355819702 0
vt 0.62499946355819702 1
vt 0.62499946355819702 0
vt 0.62499946355819702 1
vt 0.83333265781402588 0
vt 0.83333265781402588 1
vt 0.83333349227905273 0.20000000298023224
vt 1 0.20000000298023224
vt 1 0
vt 0.83333349227905273 0
vt 0.83333349227905273 0.80000001192092896
vt 1 0.80000001192092896
vt 1 1
vt 0.83333349227905273 1
vn -1 0 0
vn -1 0 0
vn -1 0 0
vn -1 0 0
vn 0 0 1
vn 0 0 1
vn 0 0 1
vn 0 0 1
vn 1 0 0
vn 1 0 0
vn 1 0 0
vn 1 0 0
vn 0 0 -1
vn 0 0 -1
vn 0 0 -1
vn 0 0 -1
vn 0 -1 0
vn 0 -1 0
vn 0 -1 0
vn 0 -1 0
vn 0 1 0
vn 0 1 0
vn 0 1 0
vn 0 1 0
f 1/1/1 3/3/3 4/4/4 2/2/2
f 5/5/5 7/7/7 8/8/8 6/6/6
f 9/9/9 11/11/11 12/12/12 10/10/10
f 13/13/13 15/15/15 16/16/16 14/14/14
f 18/18/18 17/17/17 20/20/20
f 20/20/20 19/19/19 18/18/18
f 22/22/22 24/24/24 21/21/21
f 24/24/24 22/22/22 23/23/23
