# Rhino

mtllib slider.mtl
o object_1
usemtl diffuse_200_0_0_255
v 1.2000000000000002 0 0
v 1.2000000000000002 0 1.2000000000000002
v 0 0 1.2000000000000002
v 0 0 0
v 1.2000000000000002 1.2000000000000002 0
v 1.2000000000000002 0 0
v 0 0 0
v 0 1.2000000000000002 0
v 1.2000000000000002 0 1.2000000000000002
v 1.2000000000000002 1.2000000000000002 0
v 0 1.2000000000000002 0
v 0 0 1.2000000000000002
v 0 0 1.2000000000000002
v 0 1.2000000000000002 0
v 0 0 0
v 1.2000000000000002 0 1.2000000000000002
v 1.2000000000000002 0 0
v 1.2000000000000002 1.2000000000000002 0
vt 0.66887414455413818 0.33774834871292114
vt 0.66887414455413818 0.66887414455413818
vt 0.99853515625 0.66887414455413818
vt 0.99853515625 0.33774834871292114
vt 0.66887414455413818 0
vt 0.66887414455413818 0.33112582564353943
vt 0.99853515625 0.33112582564353943
vt 0.99853515625 0
vt 0.33774834871292114 0
vt 0.33774834871292114 0.46828263998031616
vt 0.66740930080413818 0.46828263998031616
vt 0.66740930080413818 0
vt 0.0032969068270176649 0.34104523062705994
vt 0.33298659324645996 0.6707349419593811
vt 0.33298659324645996 0.34104523062705994
vt 0.0032969068270176649 0.0032968972809612751
vt 0.33298659324645996 0.0032968972809612751
vt 0.33298659324645996 0.33298659324645996
vn 0 -1 0
vn 0 -1 0
vn 0 -1 0
vn 0 -1 0
vn 0 0 -1
vn 0 0 -1
vn 0 0 -1
vn 0 0 -1
vn 0 0.70710676908493042 0.70710676908493042
vn 0 0.70710676908493042 0.70710676908493042
vn 0 0.70710676908493042 0.70710676908493042
vn 0 0.70710676908493042 0.70710676908493042
vn -1 0 0
vn -1 0 0
vn -1 0 0
vn 1 0 0
vn 1 0 0
vn 1 0 0
f 1/1/1 2/2/2 3/3/3 4/4/4
f 5/5/5 6/6/6 7/7/7 8/8/8
f 9/9/9 10/10/10 11/11/11 12/12/12
f 13/13/13 14/14/14 15/15/15
f 16/16/16 17/17/17 18/18/18
o object_2
usemtl diffuse_200_0_0_255
v 0.80000000000000004 0.35781984329223637 0.84218015670776369
v 0.80000000000000004 0.73338403701782229 0.46661596298217778
v 0.80000000000000004 1.0162267684936523 0.74945864677429208
v 0.80000000000000004 0.64066257476806643 1.1250228881835938
v 0.80000000000000004 0.73338403701782229 0.46661596298217778
v 0.28046998977661136 0.73338403701782229 0.46661596298217778
v 0.28046998977661136 1.0162267684936523 0.74945864677429208
v 0.80000000000000004 1.0162267684936523 0.74945864677429208
v 0.28046998977661136 0.73338403701782229 0.46661596298217778
v 0.28046998977661136 0.35781984329223637 0.84218015670776369
v 0.28046998977661136 0.64066257476806643 1.1250228881835938
v 0.28046998977661136 1.0162267684936523 0.74945864677429208
v 0.28046998977661136 0.35781984329223637 0.84218015670776369
v 0.80000000000000004 0.35781984329223637 0.84218015670776369
v 0.80000000000000004 0.64066257476806643 1.1250228881835938
v 0.28046998977661136 0.64066257476806643 1.1250228881835938
v 0.80000000000000004 0.73338403701782229 0.46661596298217778
v 0.80000000000000004 0.35781984329223637 0.84218015670776369
v 0.28046998977661136 0.35781984329223637 0.84218015670776369
v 0.28046998977661136 0.73338403701782229 0.46661596298217778
v 0.80000000000000004 1.0162267684936523 0.74945864677429208
v 0.28046998977661136 0.64066257476806643 1.1250228881835938
v 0.80000000000000004 0.64066257476806643 1.1250228881835938
v 0.28046998977661136 1.0162267684936523 0.74945864677429208
vt 0 0
vt 0.25275969505310059 0
vt 0.25275969505310059 0.63897919654846191
vt 0 0.63897919654846191
vt 0.25275969505310059 0
vt 0.5 0
vt 0.5 0.63897919654846191
vt 0.25275969505310059 0.63897919654846191
vt 0.5 0
vt 0.75275969505310059 0
vt 0.75275969505310059 0.63897919654846191
vt 0.5 0.63897919654846191
vt 0.75275969505310059 0
vt 1 0
vt 1 0.63897919654846191
vt 0.75275969505310059 0.63897919654846191
vt 0.25275969505310059 1
vt 0 1
vt 0 0.63897985219955444
vt 0.25275969505310059 0.63897985219955444
vt 1 0.63897985219955444
vt 0.74724030494689941 1
vt 0.74724030494689941 0.63897985219955444
vt 1 1
vn 1 0 0
vn 1 0 0
vn 1 0 0
vn 1 0 0
vn 0 0.70710676908493042 -0.70710676908493042
vn 0 0.70710676908493042 -0.70710676908493042
vn 0 0.70710676908493042 -0.70710676908493042
vn 0 0.70710676908493042 -0.70710676908493042
vn -1 0 0
vn -1 0 0
vn -1 0 0
vn -1 0 0
vn 0 -0.70710676908493042 0.70710676908493042
vn 0 -0.70710676908493042 0.70710676908493042
vn 0 -0.70710676908493042 0.70710676908493042
vn 0 -0.70710676908493042 0.70710676908493042
vn 0 -0.70710676908493042 -0.70710676908493042
vn 0 -0.70710676908493042 -0.70710676908493042
vn 0 -0.70710676908493042 -0.70710676908493042
vn 0 -0.70710676908493042 -0.70710676908493042
vn 0 0.70710676908493042 0.70710676908493042
vn 0 0.70710676908493042 0.70710676908493042
vn 0 0.70710676908493042 0.70710676908493042
vn 0 0.70710676908493042 0.70710676908493042
f 19/19/19 20/20/20 21/21/21 22/22/22
f 23/23/23 24/24/24 25/25/25 26/26/26
f 27/27/27 28/28/28 29/29/29 30/30/30
f 31/31/31 32/32/32 33/33/33 34/34/34
f 35/35/35 36/36/36 37/37/37
f 37/37/37 38/38/38 35/35/35
f 39/39/39 40/40/40 41/41/41
f 40/40/40 39/39/39 42/42/42
