# Rhino

mtllib slider.mtl
o object_1
usemtl diffuse_200_0_0_255
v 2 2.1054503917694092 -0.89454960823059082
v 2 2.8125572204589844 -1.601656436920166
v 2 1.1665399074554443 -1.8334600925445557
v 2 1.87364661693573 -2.5405669212341309
v 2 1.1665399074554443 -1.8334600925445557
v 2 1.87364661693573 -2.5405669212341309
v 0.70117497444152832 1.1665399074554443 -1.8334600925445557
v 0.70117497444152832 1.87364661693573 -2.5405669212341309
v 0.70117497444152832 1.1665399074554443 -1.8334600925445557
v 0.70117497444152832 1.87364661693573 -2.5405669212341309
v 0.70117497444152832 2.1054503917694092 -0.89454960823059082
v 0.70117497444152832 2.8125572204589844 -1.601656436920166
v 0.70117497444152832 2.1054503917694092 -0.89454960823059082
v 0.70117497444152832 2.8125572204589844 -1.601656436920166
v 2 2.1054503917694092 -0.89454960823059082
v 2 2.8125572204589844 -1.601656436920166
v 2 2.1054503917694092 -0.89454960823059082
v 2 1.1665399074554443 -1.8334600925445557
v 0.70117497444152832 1.1665399074554443 -1.8334600925445557
v 0.70117497444152832 2.1054503917694092 -0.89454960823059082
v 2 2.8125572204589844 -1.601656436920166
v 2 1.87364661693573 -2.5405669212341309
v 0.70117497444152832 1.87364661693573 -2.5405669212341309
v 0.70117497444152832 2.8125572204589844 -1.601656436920166
vt 0 0
vt 0 0.63897919654846191
vt 0.25275969505310059 0
vt 0.25275969505310059 0.63897919654846191
vt 0.25275969505310059 0
vt 0.25275969505310059 0.63897919654846191
vt 0.5 0
vt 0.5 0.63897919654846191
vt 0.5 0
vt 0.5 0.63897919654846191
vt 0.75275969505310059 0
vt 0.75275969505310059 0.63897919654846191
vt 0.75275969505310059 0
vt 0.75275969505310059 0.63897919654846191
vt 1 0
vt 1 0.63897919654846191
vt 0 1
vt 0.25275969505310059 1
vt 0.25275969505310059 0.63897985219955444
vt 0 0.63897985219955444
vt 0.74724030494689941 0.63897985219955444
vt 1 0.63897985219955444
vt 1 1
vt 0.74724030494689941 1
vn 1 0 0
vn 1 0 0
vn 1 0 0
vn 1 0 0
vn 0 -0.70710676908493042 -0.70710676908493042
vn 0 -0.70710676908493042 -0.70710676908493042
vn 0 -0.70710676908493042 -0.70710676908493042
vn 0 -0.70710676908493042 -0.70710676908493042
vn -1 0 0
vn -1 0 0
vn -1 0 0
vn -1 0 0
vn 0 0.70710676908493042 0.70710676908493042
vn 0 0.70710676908493042 0.70710676908493042
vn 0 0.70710676908493042 0.70710676908493042
vn 0 0.70710676908493042 0.70710676908493042
vn 0 -0.70710676908493042 0.70710676908493042
vn 0 -0.70710676908493042 0.70710676908493042
vn 0 -0.70710676908493042 0.70710676908493042
vn 0 -0.70710676908493042 0.70710676908493042
vn 0 0.70710676908493042 -0.70710676908493042
vn 0 0.70710676908493042 -0.70710676908493042
vn 0 0.70710676908493042 -0.70710676908493042
vn 0 0.70710676908493042 -0.70710676908493042
f 1/1/1 3/3/3 4/4/4 2/2/2
f 5/5/5 7/7/7 8/8/8 6/6/6
f 9/9/9 11/11/11 12/12/12 10/10/10
f 13/13/13 15/15/15 16/16/16 14/14/14
f 18/18/18 17/17/17 20/20/20
f 20/20/20 19/19/19 18/18/18
f 22/22/22 24/24/24 21/21/21
f 24/24/24 22/22/22 23/23/23
o object_1
usemtl diffuse_200_0_0_255
v 0 0 0
v 3 0 0
v 0 3 0
v 3 3 0
v 0 0 -3
v 3 0 -3
v 0 0 0
v 3 0 0
v 0 3 0
v 3 3 0
v 0 0 -3
v 3 0 -3
v 0 3 0
v 0 0 0
v 0 0 -3
v 3 3 0
v 3 0 0
v 3 0 -3
vt 0.99853515625 0.33774834871292114
vt 0.66887414455413818 0.33774834871292114
vt 0.99853515625 0.66887414455413818
vt 0.66887414455413818 0.66887414455413818
vt 0.99853515625 0
vt 0.66887414455413818 0
vt 0.99853515625 0.33112582564353943
vt 0.66887414455413818 0.33112582564353943
vt 0.66740930080413818 0
vt 0.33774834871292114 0
vt 0.66740930080413818 0.46828263998031616
vt 0.33774834871292114 0.46828263998031616
vt 0.0032969068270176649 0.34104523062705994
vt 0.33298659324645996 0.34104523062705994
vt 0.33298659324645996 0.6707349419593811
vt 0.0032969068270176649 0.0032968972809612751
vt 0.33298659324645996 0.0032968972809612751
vt 0.33298659324645996 0.33298659324645996
vn 0 0 1
vn 0 0 1
vn 0 0 1
vn 0 0 1
vn 0 -1 0
vn 0 -1 0
vn 0 -1 0
vn 0 -1 0
vn 0 0.70710676908493042 -0.70710676908493042
vn 0 0.70710676908493042 -0.70710676908493042
vn 0 0.70710676908493042 -0.70710676908493042
vn 0 0.70710676908493042 -0.70710676908493042
vn -1 0 0
vn -1 0 0
vn -1 0 0
vn 1 0 0
vn 1 0 0
vn 1 0 0
f 26/26/26 28/28/28 27/27/27 25/25/25
f 30/30/30 32/32/32 31/31/31 29/29/29
f 34/34/34 36/36/36 35/35/35 33/33/33
f 37/37/37 39/39/39 38/38/38
f 40/40/40 41/41/41 42/42/42
